<?xml version="1.0" encoding="utf-8"?>
<!-- Generator: Adobe Illustrator 16.0.3, SVG Export Plug-In . SVG Version: 6.00 Build 0)  -->
<!DOCTYPE svg PUBLIC "-//W3C//DTD SVG 1.1//EN" "http://www.w3.org/Graphics/SVG/1.1/DTD/svg11.dtd">
<svg version="1.1" id="Capa_1" xmlns="http://www.w3.org/2000/svg" xmlns:xlink="http://www.w3.org/1999/xlink" x="0px" y="0px"
	 width="1920px" height="1080px" viewBox="0 0 1920 1080" enable-background="new 0 0 1920 1080" xml:space="preserve">
<path d="M1467.567,102.162H452.433c-17.838,0-32.433,14.595-32.433,32.433s14.595,32.432,32.433,32.432h1015.136
	c17.838,0,32.433-14.594,32.433-32.432S1485.405,102.162,1467.567,102.162z M1165.946,371.351H452.433
	c-17.838,0-32.433,14.595-32.433,32.433s14.595,32.434,32.433,32.434h713.515c17.837,0,32.433-14.596,32.433-32.434
	S1183.783,371.351,1165.946,371.351z M1467.567,643.782H452.433c-17.838,0-32.433,14.596-32.433,32.434s14.595,32.433,32.433,32.433
	h1015.136c17.838,0,32.433-14.595,32.433-32.433S1485.405,643.782,1467.567,643.782z M909.729,912.973H452.433
	c-17.838,0-32.433,14.595-32.433,32.433s14.595,32.433,32.433,32.433H909.73c17.838,0,32.433-14.595,32.433-32.433
	S927.567,912.973,909.729,912.973z"/>
</svg>
